<svg width="50" height="50" viewBox="0 0 50 50" fill="red" xmlns="http://www.w3.org/2000/svg">
<g clip-path="url(#clip0_1_154)">
<path d="M12.068 23.6279L35.1944 0.565417C35.9521 -0.189756 37.1789 -0.188486 37.9353 0.569323C38.6912 1.32704 38.6892 2.55447 37.9314 3.31023L16.1815 25.0001L37.9322 46.6898C38.6899 47.4457 38.6919 48.6724 37.9361 49.4302C37.5569 49.81 37.0601 50 36.5634 50C36.0679 50 35.573 49.8113 35.1945 49.4341L12.068 26.3722C11.703 26.0091 11.4982 25.5149 11.4982 25.0001C11.4982 24.4852 11.7036 23.9917 12.068 23.6279Z" fill="white"/>
</g>
<defs>
<clipPath id="clip0_1_154">
<rect width="50" height="50" fill="red" transform="matrix(-1 0 0 1 50 0)"/>
</clipPath>
</defs>
</svg>
